Coordinates
version=1
nRows=13
nColumns=22
inDegrees=yes

Units are S.I. units (second, meters, Newtons, ...)
If the header above contains a line with 'inDegrees', this indicates whether rotational values are in degrees (yes) or radians (no).

endheader
time	pelvis_tilt	pelvis_list	pelvis_rotation	pelvis_tx	pelvis_ty	pelvis_tz	hip_flexion_r	hip_adduction_r	hip_rotation_r	knee_angle_r	ankle_angle_r	subtalar_angle_r	hip_flexion_l	hip_adduction_l	hip_rotation_l	knee_angle_l	ankle_angle_l	subtalar_angle_l	lumbar_extension	lumbar_bending	lumbar_rotation
      4.15000000	     -1.79343498	      7.28778253	    -98.90981840	      0.25096688	      0.87332100	      0.00289705	      4.35862492	     -0.87427522	     10.07752150	    -39.37968716	      2.39364648	      5.55008545	     20.79102225	     -8.93625419	     -9.33128419	     -9.29169140	      0.27565580	     13.89787631	      4.19135765	     -0.53472746	     11.79382192
      4.16000000	     -1.67192714	      7.34669591	    -99.03980917	      0.25412475	      0.87375976	      0.00764789	      5.94255870	     -1.19187776	      9.39246676	    -41.99304110	      0.61983931	      5.61862240	     20.41553518	     -8.56357158	     -9.74586810	     -9.07160400	      0.43594860	     13.32510704	      4.06093593	     -0.71049739	     11.70046303
      4.17000000	     -1.48440273	      7.34860612	    -99.19493003	      0.25715757	      0.87403254	      0.01212462	      7.56380951	     -1.62262602	      8.69940993	    -44.66627916	     -1.01733041	      5.50591740	     20.03741960	     -8.13424935	    -10.14496962	     -8.91735099	      0.65719496	     12.82075245	      3.84942701	     -0.97199461	     11.61518714
      4.18000000	     -1.23056029	      7.29886044	    -99.36653640	      0.26008099	      0.87416964	      0.01633779	      9.20753235	     -2.17129089	      8.01510693	    -47.35267971	     -2.45779547	      5.23459109	     19.65927111	     -7.64598776	    -10.52833583	     -8.82308809	      0.92051858	     12.37382374	      3.56572678	     -1.31484955	     11.53616188
      4.19000000	     -0.90290327	      7.20778072	    -99.55629912	      0.26286107	      0.87419485	      0.02035258	     10.86272809	     -2.84375500	      7.36148993	    -50.00919081	     -3.62439584	      4.86723860	     19.26791358	     -7.09203528	    -10.89879157	     -8.74928912	      1.21884015	     12.01616412	      3.23805003	     -1.75109981	     11.45981860
      4.20000000	     -0.49837291	      7.06332781	    -99.75437222	      0.26553498	      0.87417539	      0.02421522	     12.48738683	     -3.64715140	      6.75705941	    -52.57484062	     -4.42793295	      4.63004977	     18.84384764	     -6.45960472	    -11.25407187	     -8.68165933	      1.50237242	     11.86593221	      2.85940110	     -2.28408805	     11.37691962
      4.21000000	     -0.05172130	      6.96417831	    -99.99291836	      0.26805742	      0.87402258	      0.02794125	     14.16790485	     -4.49477960	      6.25892001	    -55.00061231	     -4.82559922	      4.19628573	     18.46039443	     -5.80502428	    -11.58050039	     -8.58090110	      1.85267276	     11.60548287	      2.55229198	     -2.84387691	     11.32394682
      4.22000000	      0.41576552	      6.85140079	   -100.23006377	      0.27051088	      0.87389191	      0.03157833	     15.80336031	     -5.38855300	      5.80311612	    -57.21425942	     -4.81792643	      3.77536255	     18.08805003	     -5.13064310	    -11.90607322	     -8.50152249	      2.15576890	     11.40097192	      2.24503693	     -3.42140608	     11.26217147
      4.23000000	      0.87987904	      6.76066707	   -100.47416023	      0.27291238	      0.87377108	      0.03514187	     17.40926008	     -6.27379559	      5.40310029	    -59.16708462	     -4.41139752	      3.19826097	     17.76326153	     -4.46694902	    -12.23557139	     -8.45216763	      2.46285926	     11.14161088	      1.97964677	     -3.97194028	     11.19635695
      4.24000000	      1.33212918	      6.70240772	   -100.74815086	      0.27522235	      0.87370027	      0.03869666	     18.97754243	     -7.11104383	      5.09838265	    -60.81972470	     -3.62699609	      2.79024446	     17.43169763	     -3.82080672	    -12.53047043	     -8.32057145	      2.71548610	     11.03637224	      1.78232272	     -4.48275065	     11.16986175
      4.25000000	      1.70409029	      6.69020916	   -101.02668719	      0.27744791	      0.87369679	      0.04217624	     20.49220301	     -7.80261747	      4.84597712	    -62.13843230	     -2.57343509	      2.07249767	     17.17554058	     -3.27558207	    -12.83167947	     -8.24838414	      2.97391852	     10.79547898	      1.64271792	     -4.87438880	     11.15314041
      4.26000000	      2.01866108	      6.69099595	   -101.31191720	      0.27959588	      0.87382730	      0.04561942	     21.91814226	     -8.37224489	      4.65517765	    -63.11485446	     -1.43015586	      1.50101061	     16.91981303	     -2.79184424	    -13.09430208	     -8.15681304	      3.20951885	     10.64583011	      1.53048273	     -5.18126448	     11.16045033
      4.27000000	      2.20376118	      6.72939676	   -101.58061192	      0.28163041	      0.87409813	      0.04902405	     23.22647947	     -8.72479399	      4.47965408	    -63.71191319	     -0.22654988	      0.77870534	     16.70943737	     -2.45656237	    -13.36513164	     -8.10431898	      3.42884788	     10.41590640	      1.45508792	     -5.31943690	     11.16139843
